<svg id="mermaid-8c2d9c42-855c-46db-99ca-28e07acbb142" width="592.9495849609375" xmlns="http://www.w3.org/2000/svg" class="flowchart" style="max-width: 528.9495849609375px;" viewBox="-28 -28 592.9495849609375 1193.359375" role="graphics-document document" aria-roledescription="flowchart-v2" xmlns:xlink="http://www.w3.org/1999/xlink" height="1193.359375"><rect x="-28" y="-28" width="592.9495849609375" height="1193.359375" fill="#ffffff"/><style>#mermaid-8c2d9c42-855c-46db-99ca-28e07acbb142{font-family:ui-sans-serif,-apple-system,BlinkMacSystemFont,"Segoe UI Variable Display","Segoe UI",Helvetica,"Apple Color Emoji","Noto Sans Arabic","Noto Sans Hebrew",Arial,sans-serif,"Segoe UI Emoji","Segoe UI Symbol";font-size:16px;fill:#000000;}@keyframes edge-animation-frame{from{stroke-dashoffset:0;}}@keyframes dash{to{stroke-dashoffset:0;}}#mermaid-8c2d9c42-855c-46db-99ca-28e07acbb142 .edge-animation-slow{stroke-dasharray:9,5!important;stroke-dashoffset:900;animation:dash 50s linear infinite;stroke-linecap:round;}#mermaid-8c2d9c42-855c-46db-99ca-28e07acbb142 .edge-animation-fast{stroke-dasharray:9,5!important;stroke-dashoffset:900;animation:dash 20s linear infinite;stroke-linecap:round;}#mermaid-8c2d9c42-855c-46db-99ca-28e07acbb142 .error-icon{fill:#552222;}#mermaid-8c2d9c42-855c-46db-99ca-28e07acbb142 .error-text{fill:#552222;stroke:#552222;}#mermaid-8c2d9c42-855c-46db-99ca-28e07acbb142 .edge-thickness-normal{stroke-width:1px;}#mermaid-8c2d9c42-855c-46db-99ca-28e07acbb142 .edge-thickness-thick{stroke-width:3.5px;}#mermaid-8c2d9c42-855c-46db-99ca-28e07acbb142 .edge-pattern-solid{stroke-dasharray:0;}#mermaid-8c2d9c42-855c-46db-99ca-28e07acbb142 .edge-thickness-invisible{stroke-width:0;fill:none;}#mermaid-8c2d9c42-855c-46db-99ca-28e07acbb142 .edge-pattern-dashed{stroke-dasharray:3;}#mermaid-8c2d9c42-855c-46db-99ca-28e07acbb142 .edge-pattern-dotted{stroke-dasharray:2;}#mermaid-8c2d9c42-855c-46db-99ca-28e07acbb142 .marker{fill:#666;stroke:#666;}#mermaid-8c2d9c42-855c-46db-99ca-28e07acbb142 .marker.cross{stroke:#666;}#mermaid-8c2d9c42-855c-46db-99ca-28e07acbb142 svg{font-family:ui-sans-serif,-apple-system,BlinkMacSystemFont,"Segoe UI Variable Display","Segoe UI",Helvetica,"Apple Color Emoji","Noto Sans Arabic","Noto Sans Hebrew",Arial,sans-serif,"Segoe UI Emoji","Segoe UI Symbol";font-size:16px;}#mermaid-8c2d9c42-855c-46db-99ca-28e07acbb142 p{margin:0;}#mermaid-8c2d9c42-855c-46db-99ca-28e07acbb142 .label{font-family:ui-sans-serif,-apple-system,BlinkMacSystemFont,"Segoe UI Variable Display","Segoe UI",Helvetica,"Apple Color Emoji","Noto Sans Arabic","Noto Sans Hebrew",Arial,sans-serif,"Segoe UI Emoji","Segoe UI Symbol";color:#000000;}#mermaid-8c2d9c42-855c-46db-99ca-28e07acbb142 .cluster-label text{fill:#333;}#mermaid-8c2d9c42-855c-46db-99ca-28e07acbb142 .cluster-label span{color:#333;}#mermaid-8c2d9c42-855c-46db-99ca-28e07acbb142 .cluster-label span p{background-color:transparent;}#mermaid-8c2d9c42-855c-46db-99ca-28e07acbb142 .label text,#mermaid-8c2d9c42-855c-46db-99ca-28e07acbb142 span{fill:#000000;color:#000000;}#mermaid-8c2d9c42-855c-46db-99ca-28e07acbb142 .node rect,#mermaid-8c2d9c42-855c-46db-99ca-28e07acbb142 .node circle,#mermaid-8c2d9c42-855c-46db-99ca-28e07acbb142 .node ellipse,#mermaid-8c2d9c42-855c-46db-99ca-28e07acbb142 .node polygon,#mermaid-8c2d9c42-855c-46db-99ca-28e07acbb142 .node path{fill:#eee;stroke:#999;stroke-width:1px;}#mermaid-8c2d9c42-855c-46db-99ca-28e07acbb142 .rough-node .label text,#mermaid-8c2d9c42-855c-46db-99ca-28e07acbb142 .node .label text,#mermaid-8c2d9c42-855c-46db-99ca-28e07acbb142 .image-shape .label,#mermaid-8c2d9c42-855c-46db-99ca-28e07acbb142 .icon-shape .label{text-anchor:middle;}#mermaid-8c2d9c42-855c-46db-99ca-28e07acbb142 .node .katex path{fill:#000;stroke:#000;stroke-width:1px;}#mermaid-8c2d9c42-855c-46db-99ca-28e07acbb142 .rough-node .label,#mermaid-8c2d9c42-855c-46db-99ca-28e07acbb142 .node .label,#mermaid-8c2d9c42-855c-46db-99ca-28e07acbb142 .image-shape .label,#mermaid-8c2d9c42-855c-46db-99ca-28e07acbb142 .icon-shape .label{text-align:center;}#mermaid-8c2d9c42-855c-46db-99ca-28e07acbb142 .node.clickable{cursor:pointer;}#mermaid-8c2d9c42-855c-46db-99ca-28e07acbb142 .root .anchor path{fill:#666!important;stroke-width:0;stroke:#666;}#mermaid-8c2d9c42-855c-46db-99ca-28e07acbb142 .arrowheadPath{fill:#333333;}#mermaid-8c2d9c42-855c-46db-99ca-28e07acbb142 .edgePath .path{stroke:#666;stroke-width:2.0px;}#mermaid-8c2d9c42-855c-46db-99ca-28e07acbb142 .flowchart-link{stroke:#666;fill:none;}#mermaid-8c2d9c42-855c-46db-99ca-28e07acbb142 .edgeLabel{background-color:white;text-align:center;}#mermaid-8c2d9c42-855c-46db-99ca-28e07acbb142 .edgeLabel p{background-color:white;}#mermaid-8c2d9c42-855c-46db-99ca-28e07acbb142 .edgeLabel rect{opacity:0.5;background-color:white;fill:white;}#mermaid-8c2d9c42-855c-46db-99ca-28e07acbb142 .labelBkg{background-color:rgba(255, 255, 255, 0.5);}#mermaid-8c2d9c42-855c-46db-99ca-28e07acbb142 .cluster rect{fill:hsl(0, 0%, 98.9215686275%);stroke:#707070;stroke-width:1px;}#mermaid-8c2d9c42-855c-46db-99ca-28e07acbb142 .cluster text{fill:#333;}#mermaid-8c2d9c42-855c-46db-99ca-28e07acbb142 .cluster span{color:#333;}#mermaid-8c2d9c42-855c-46db-99ca-28e07acbb142 div.mermaidTooltip{position:absolute;text-align:center;max-width:200px;padding:2px;font-family:ui-sans-serif,-apple-system,BlinkMacSystemFont,"Segoe UI Variable Display","Segoe UI",Helvetica,"Apple Color Emoji","Noto Sans Arabic","Noto Sans Hebrew",Arial,sans-serif,"Segoe UI Emoji","Segoe UI Symbol";font-size:12px;background:hsl(-160, 0%, 93.3333333333%);border:1px solid #707070;border-radius:2px;pointer-events:none;z-index:100;}#mermaid-8c2d9c42-855c-46db-99ca-28e07acbb142 .flowchartTitleText{text-anchor:middle;font-size:18px;fill:#000000;}#mermaid-8c2d9c42-855c-46db-99ca-28e07acbb142 rect.text{fill:none;stroke-width:0;}#mermaid-8c2d9c42-855c-46db-99ca-28e07acbb142 .icon-shape,#mermaid-8c2d9c42-855c-46db-99ca-28e07acbb142 .image-shape{background-color:white;text-align:center;}#mermaid-8c2d9c42-855c-46db-99ca-28e07acbb142 .icon-shape p,#mermaid-8c2d9c42-855c-46db-99ca-28e07acbb142 .image-shape p{background-color:white;padding:2px;}#mermaid-8c2d9c42-855c-46db-99ca-28e07acbb142 .icon-shape rect,#mermaid-8c2d9c42-855c-46db-99ca-28e07acbb142 .image-shape rect{opacity:0.5;background-color:white;fill:white;}#mermaid-8c2d9c42-855c-46db-99ca-28e07acbb142 .label-icon{display:inline-block;height:1em;overflow:visible;vertical-align:-0.125em;}#mermaid-8c2d9c42-855c-46db-99ca-28e07acbb142 .node .label-icon path{fill:currentColor;stroke:revert;stroke-width:revert;}#mermaid-8c2d9c42-855c-46db-99ca-28e07acbb142 :root{--mermaid-font-family:"trebuchet ms",verdana,arial,sans-serif;}</style><g><marker id="mermaid-8c2d9c42-855c-46db-99ca-28e07acbb142_flowchart-v2-pointEnd" class="marker flowchart-v2" viewBox="0 0 10 10" refX="5" refY="5" markerUnits="userSpaceOnUse" markerWidth="8" markerHeight="8" orient="auto"><path d="M 0 0 L 10 5 L 0 10 z" class="arrowMarkerPath" style="stroke-width: 1; stroke-dasharray: 1, 0;"/></marker><marker id="mermaid-8c2d9c42-855c-46db-99ca-28e07acbb142_flowchart-v2-pointStart" class="marker flowchart-v2" viewBox="0 0 10 10" refX="4.5" refY="5" markerUnits="userSpaceOnUse" markerWidth="8" markerHeight="8" orient="auto"><path d="M 0 5 L 10 10 L 10 0 z" class="arrowMarkerPath" style="stroke-width: 1; stroke-dasharray: 1, 0;"/></marker><marker id="mermaid-8c2d9c42-855c-46db-99ca-28e07acbb142_flowchart-v2-circleEnd" class="marker flowchart-v2" viewBox="0 0 10 10" refX="11" refY="5" markerUnits="userSpaceOnUse" markerWidth="11" markerHeight="11" orient="auto"><circle cx="5" cy="5" r="5" class="arrowMarkerPath" style="stroke-width: 1; stroke-dasharray: 1, 0;"/></marker><marker id="mermaid-8c2d9c42-855c-46db-99ca-28e07acbb142_flowchart-v2-circleStart" class="marker flowchart-v2" viewBox="0 0 10 10" refX="-1" refY="5" markerUnits="userSpaceOnUse" markerWidth="11" markerHeight="11" orient="auto"><circle cx="5" cy="5" r="5" class="arrowMarkerPath" style="stroke-width: 1; stroke-dasharray: 1, 0;"/></marker><marker id="mermaid-8c2d9c42-855c-46db-99ca-28e07acbb142_flowchart-v2-crossEnd" class="marker cross flowchart-v2" viewBox="0 0 11 11" refX="12" refY="5.2" markerUnits="userSpaceOnUse" markerWidth="11" markerHeight="11" orient="auto"><path d="M 1,1 l 9,9 M 10,1 l -9,9" class="arrowMarkerPath" style="stroke-width: 2; stroke-dasharray: 1, 0;"/></marker><marker id="mermaid-8c2d9c42-855c-46db-99ca-28e07acbb142_flowchart-v2-crossStart" class="marker cross flowchart-v2" viewBox="0 0 11 11" refX="-1" refY="5.2" markerUnits="userSpaceOnUse" markerWidth="11" markerHeight="11" orient="auto"><path d="M 1,1 l 9,9 M 10,1 l -9,9" class="arrowMarkerPath" style="stroke-width: 2; stroke-dasharray: 1, 0;"/></marker></g><g class="subgraphs"><g class="subgraph"><g class="cluster" id="External" data-look="classic"><rect style="" x="84.92872852066972" y="1020.3594055175781" width="440.0208282470703" height="105"/><g class="cluster-label" transform="translate(277.19955867508867, 1020.3594055175781)"><foreignObject width="55.47916793823242" height="24"><div xmlns="http://www.w3.org/1999/xhtml" style="display: table-cell; white-space: nowrap; line-height: 1.5; max-width: 200px; text-align: center;"><span class="nodeLabel"><p>External</p></span></div></foreignObject></g></g></g><g class="subgraph"><g class="cluster" id="subGraph1" data-look="classic"><rect style="" x="12" y="250" width="316.3125" height="661.3594055175781"/><g class="cluster-label" transform="translate(140.56770706176758, 250)"><foreignObject width="59.177085876464844" height="24"><div xmlns="http://www.w3.org/1999/xhtml" style="display: table-cell; white-space: nowrap; line-height: 1.5; max-width: 200px; text-align: center;"><span class="nodeLabel"><p>GCP VM</p></span></div></foreignObject></g></g></g><g class="subgraph"><g class="cluster" id="Client" data-look="classic"><rect style="" x="79.52635347729955" y="12" width="244.40625" height="129"/><g class="cluster-label" transform="translate(180.92739450818334, 12)"><foreignObject width="41.60416793823242" height="24"><div xmlns="http://www.w3.org/1999/xhtml" style="display: table-cell; white-space: nowrap; line-height: 1.5; max-width: 200px; text-align: center;"><span class="nodeLabel"><p>Client</p></span></div></foreignObject></g></g></g></g><g class="nodes"><g class="node default" id="flowchart-KAKAO-5" transform="translate(181.72039264420488, 1086.3594055175781)"><rect class="basic label-container" style="" x="-84.79166793823242" y="-27" width="169.58333587646484" height="54"/><g class="label" style="" transform="translate(-54.79166793823242, -12)"><rect/><foreignObject width="109.58333587646484" height="24"><div xmlns="http://www.w3.org/1999/xhtml" style="display: table-cell; white-space: nowrap; line-height: 1.5; max-width: 200px; text-align: center;"><span class="nodeLabel"><p>Kakao Local API</p></span></div></foreignObject></g></g><g class="node default" id="flowchart-GCS-6" transform="translate(404.73080676774003, 1086.3594055175781)"><rect class="basic label-container" style="" x="-108.21875" y="-27" width="216.4375" height="54"/><g class="label" style="" transform="translate(-78.21875, -12)"><rect/><foreignObject width="156.4375" height="24"><div xmlns="http://www.w3.org/1999/xhtml" style="display: table-cell; white-space: nowrap; line-height: 1.5; max-width: 200px; text-align: center;"><span class="nodeLabel"><p>Google Cloud Storage</p></span></div></foreignObject></g></g><g class="node default" id="flowchart-NGINX-1" transform="translate(182.465625, 328)"><rect class="basic label-container" style="" x="-91.515625" y="-39" width="183.03125" height="78"/><g class="label" style="" transform="translate(-61.515625, -24)"><rect/><foreignObject width="123.03125" height="48"><div xmlns="http://www.w3.org/1999/xhtml" style="display: table-cell; white-space: nowrap; line-height: 1.5; max-width: 200px; text-align: center;"><span class="nodeLabel"><p>Nginx<br />api.piec.store:443</p></span></div></foreignObject></g></g><g class="node default" id="flowchart-APP-2" transform="translate(182.465625, 490)"><rect class="basic label-container" style="" x="-92.390625" y="-39" width="184.78125" height="78"/><g class="label" style="" transform="translate(-62.390625, -24)"><rect/><foreignObject width="124.78125" height="48"><div xmlns="http://www.w3.org/1999/xhtml" style="display: table-cell; white-space: nowrap; line-height: 1.5; max-width: 200px; text-align: center;"><span class="nodeLabel"><p>arbit-app<br />Spring Boot :8080</p></span></div></foreignObject></g></g><g class="node default" id="flowchart-AI-3" transform="translate(127.03125, 682)"><rect class="basic label-container" style="" x="-103.03125" y="-39" width="206.0625" height="78"/><g class="label" style="" transform="translate(-73.03125, -24)"><rect/><foreignObject width="146.0625" height="48"><div xmlns="http://www.w3.org/1999/xhtml" style="display: table-cell; white-space: nowrap; line-height: 1.5; max-width: 200px; text-align: center;"><span class="nodeLabel"><p>arbit-ai<br />Python FastAPI :8000</p></span></div></foreignObject></g></g><g class="node default" id="flowchart-DB-4" transform="translate(142.00173695882162, 852.1797027587891)"><path d="M0,10.453135193859348 a44.911460876464844,10.453135193859348 0,0,0 89.82292175292969,0 a44.911460876464844,10.453135193859348 0,0,0 -89.82292175292969,0 l0,73.45313519385934 a44.911460876464844,10.453135193859348 0,0,0 89.82292175292969,0 l0,-73.45313519385934" class="basic label-container" style="" transform="translate(-44.911460876464844, -47.179702790789015)"/><g class="label" style="" transform="translate(-37.411460876464844, -14)"><rect/><foreignObject width="74.82292175292969" height="48"><div xmlns="http://www.w3.org/1999/xhtml" style="display: table-cell; white-space: nowrap; line-height: 1.5; max-width: 200px; text-align: center;"><span class="nodeLabel"><p>MySQL 8.0<br />arbit-db</p></span></div></foreignObject></g></g><g class="node default" id="flowchart-FE-0" transform="translate(201.72947847729955, 90)"><rect class="basic label-container" style="" x="-110.203125" y="-39" width="220.40625" height="78"/><g class="label" style="" transform="translate(-80.203125, -24)"><rect/><foreignObject width="160.40625" height="48"><div xmlns="http://www.w3.org/1999/xhtml" style="display: table-cell; white-space: nowrap; line-height: 1.5; max-width: 200px; text-align: center;"><span class="nodeLabel"><p>프론트엔드<br />arbit-umber.vercel.app</p></span></div></foreignObject></g></g></g><g class="edges edgePaths"><path d="M201.729,129L201.729,132.25C201.729,135.5,201.729,142,201.729,157.167C201.729,172.333,201.729,196.167,201.368,208.555C201.006,220.943,200.282,221.886,199.448,222.719C198.615,223.552,197.672,224.276,195.657,224.638C193.642,225,190.554,225,188.538,225.362C186.523,225.724,185.58,226.448,184.747,227.281C183.913,228.114,183.189,229.057,182.828,231.612C182.466,234.167,182.466,238.333,182.466,247.5C182.466,256.667,182.466,270.833,182.466,277.917L182.466,285" id="L_FE_NGINX_0_0" class="edge-thickness-normal edge-pattern-solid edge-thickness-normal edge-pattern-solid flowchart-link" style="" marker-end="url(#mermaid-8c2d9c42-855c-46db-99ca-28e07acbb142_flowchart-v2-pointEnd)"/><path d="M182.466,367L182.466,447" id="L_NGINX_APP_0_0" class="edge-thickness-normal edge-pattern-solid edge-thickness-normal edge-pattern-solid flowchart-link" style="" marker-end="url(#mermaid-8c2d9c42-855c-46db-99ca-28e07acbb142_flowchart-v2-pointEnd)"/><path d="M127.031,529L127.031,639" id="L_APP_AI_0_0" class="edge-thickness-normal edge-pattern-solid edge-thickness-normal edge-pattern-solid flowchart-link" style="" marker-end="url(#mermaid-8c2d9c42-855c-46db-99ca-28e07acbb142_flowchart-v2-pointEnd)"/><path d="M163.987,529L163.987,535.667C163.987,542.333,163.987,555.667,164.349,562.805C164.711,569.943,165.435,570.886,166.269,571.719C167.102,572.552,168.045,573.276,184.945,573.638C201.846,574,234.704,574,251.605,574.362C268.505,574.724,269.448,575.448,270.281,576.281C271.115,577.114,271.839,578.057,272.201,612.862C272.563,647.667,272.563,716.333,272.201,751.138C271.839,785.943,271.115,786.886,270.281,787.719C269.448,788.552,268.505,789.276,250.436,789.638C232.366,790,197.169,790,179.099,790.362C161.029,790.724,160.087,791.448,159.253,792.281C158.42,793.114,157.696,794.057,157.334,795.529C156.972,797,156.972,799,156.972,800L156.972,801" id="L_APP_DB_0_0" class="edge-thickness-normal edge-pattern-solid edge-thickness-normal edge-pattern-solid flowchart-link" style="" marker-end="url(#mermaid-8c2d9c42-855c-46db-99ca-28e07acbb142_flowchart-v2-pointEnd)"/><path d="M127.031,721L127.031,801" id="L_AI_DB_0_0" class="edge-thickness-normal edge-pattern-solid edge-thickness-normal edge-pattern-solid flowchart-link" style="" marker-end="url(#mermaid-8c2d9c42-855c-46db-99ca-28e07acbb142_flowchart-v2-pointEnd)"/><path d="M200.944,529L200.944,533.167C200.944,537.333,200.944,545.667,201.306,550.305C201.668,554.943,202.391,555.886,203.225,556.719C204.058,557.552,205.001,558.276,220.2,558.638C235.4,559,264.856,559,280.056,559.362C295.255,559.724,296.198,560.448,297.031,561.281C297.865,562.114,298.589,563.057,298.951,622.672C299.313,682.286,299.313,800.573,299.313,861.8C299.313,923.026,299.313,927.193,298.951,929.747C298.589,932.302,297.865,933.245,297.031,934.078C296.198,934.912,295.255,935.636,276.852,935.997C258.448,936.359,222.584,936.359,204.181,936.721C185.778,937.083,184.835,937.807,184.001,938.64C183.168,939.474,182.444,940.417,182.082,952.805C181.72,965.193,181.72,989.026,181.72,1008.026C181.72,1027.026,181.72,1041.193,181.72,1048.276L181.72,1055.359" id="L_APP_KAKAO_0_0" class="edge-thickness-normal edge-pattern-solid edge-thickness-normal edge-pattern-solid flowchart-link" style="" marker-end="url(#mermaid-8c2d9c42-855c-46db-99ca-28e07acbb142_flowchart-v2-pointEnd)"/><path d="M237.9,529L237.9,530.667C237.9,532.333,237.9,535.667,238.262,537.805C238.624,539.943,239.348,540.886,240.181,541.719C241.014,542.552,241.957,543.276,253.664,543.638C265.371,544,287.842,544,299.548,544.362C311.255,544.724,312.198,545.448,313.031,546.281C313.865,547.114,314.589,548.057,314.951,610.172C315.313,672.286,315.313,795.573,315.313,869.133C315.313,942.693,315.313,966.526,315.674,978.914C316.036,991.302,316.76,992.245,317.594,993.078C318.427,993.912,319.37,994.636,333.077,994.997C346.785,995.359,373.258,995.359,386.966,995.721C400.674,996.083,401.616,996.807,402.45,997.64C403.283,998.474,404.007,999.417,404.369,1001.971C404.731,1004.526,404.731,1008.693,404.731,1017.859C404.731,1027.026,404.731,1041.193,404.731,1048.276L404.731,1055.359" id="L_APP_GCS_0_0" class="edge-thickness-normal edge-pattern-solid edge-thickness-normal edge-pattern-solid flowchart-link" style="" marker-end="url(#mermaid-8c2d9c42-855c-46db-99ca-28e07acbb142_flowchart-v2-pointEnd)"/></g><g class="edgeLabels"><g class="edgeLabel" transform="translate(201.57322847729955, 195.5)"><g class="label" transform="translate(-22.84375, -12)"><foreignObject width="45.6875" height="24"><div xmlns="http://www.w3.org/1999/xhtml" class="labelBkg" style="display: table-cell; white-space: nowrap; line-height: 1.5; max-width: 200px; text-align: center;"><span class="edgeLabel"><p>HTTPS</p></span></div></foreignObject></g></g><g class="edgeLabel" transform="translate(182.29375, 409)"><g class="label" transform="translate(-39.828125, -12)"><foreignObject width="79.65625" height="24"><div xmlns="http://www.w3.org/1999/xhtml" class="labelBkg" style="display: table-cell; white-space: nowrap; line-height: 1.5; max-width: 200px; text-align: center;"><span class="edgeLabel"><p>HTTP Proxy</p></span></div></foreignObject></g></g><g class="edgeLabel" transform="translate(126.81249999999999, 601)"><g class="label" transform="translate(-17.28125, -12)"><foreignObject width="34.5625" height="24"><div xmlns="http://www.w3.org/1999/xhtml" class="labelBkg" style="display: table-cell; white-space: nowrap; line-height: 1.5; max-width: 200px; text-align: center;"><span class="edgeLabel"><p>REST</p></span></div></foreignObject></g></g><g class="edgeLabel" transform="translate(272.1875, 682)"><g class="label" transform="translate(-12.125, -12)"><foreignObject width="24.25" height="24"><div xmlns="http://www.w3.org/1999/xhtml" class="labelBkg" style="display: table-cell; white-space: nowrap; line-height: 1.5; max-width: 200px; text-align: center;"><span class="edgeLabel"><p>JPA</p></span></div></foreignObject></g></g><g class="edgeLabel" transform="translate(126.875, 763)"><g class="label" transform="translate(-18.84375, -12)"><foreignObject width="37.6875" height="24"><div xmlns="http://www.w3.org/1999/xhtml" class="labelBkg" style="display: table-cell; white-space: nowrap; line-height: 1.5; max-width: 200px; text-align: center;"><span class="edgeLabel"><p>JDBC</p></span></div></foreignObject></g></g><g class="edgeLabel" transform="translate(181.56414264420488, 965.8594055175781)"><g class="label" transform="translate(-36.34375, -12)"><foreignObject width="72.6875" height="24"><div xmlns="http://www.w3.org/1999/xhtml" class="labelBkg" style="display: table-cell; white-space: nowrap; line-height: 1.5; max-width: 200px; text-align: center;"><span class="edgeLabel"><p>주소→좌표</p></span></div></foreignObject></g></g><g class="edgeLabel" transform="translate(314.84896087646484, 965.8594055175781)"><g class="label" transform="translate(-46.036460876464844, -12)"><foreignObject width="92.07292175292969" height="24"><div xmlns="http://www.w3.org/1999/xhtml" class="labelBkg" style="display: table-cell; white-space: nowrap; line-height: 1.5; max-width: 200px; text-align: center;"><span class="edgeLabel"><p>이미지 업로드</p></span></div></foreignObject></g></g></g></svg>